<?xml version="1.0" standalone="no"?>
<!DOCTYPE svg PUBLIC "-//W3C//DTD SVG 20010904//EN"
 "http://www.w3.org/TR/2001/REC-SVG-20010904/DTD/svg10.dtd">
<svg version="1.0" xmlns="http://www.w3.org/2000/svg"
 width="700.000000pt" height="700.000000pt" viewBox="0 0 700.000000 700.000000"
 preserveAspectRatio="xMidYMid meet">
<metadata>
Created by potrace 1.11, written by Peter Selinger 2001-2013
</metadata>
<g transform="translate(0.000000,700.000000) scale(0.100000,-0.100000)"
fill="#000000" stroke="none">
<path d="M2280 3982 c0 -131 -1 -534 -3 -897 l-2 -660 -33 -68 c-52 -105 -124
-145 -271 -150 l-71 -2 0 -181 0 -182 128 3 c132 4 156 6 260 30 229 53 375
190 443 415 l23 75 4 927 3 927 -241 0 -240 -1 0 -236z"/>
<path d="M3120 4207 c-1 -15 -1 -1770 0 -1817 l0 -35 660 0 c363 0 660 2 661
5 0 3 1 84 2 180 l0 175 -364 2 c-200 1 -390 2 -421 2 l-58 1 0 749 0 750
-240 0 c-176 -1 -240 -4 -240 -12z"/>
</g>
</svg>
